<svg width="175" height="175" viewBox="0 0 175 175" fill="none" xmlns="http://www.w3.org/2000/svg">
<rect x="0.165039" y="0.165039" width="174" height="174" fill="black"/>
<rect x="0.165039" y="0.165039" width="174" height="174" stroke="white" stroke-opacity="0.16" stroke-width="0.33"/>
<mask id="path-2-outside-1_11087_22079" maskUnits="userSpaceOnUse" x="21.165" y="42.165" width="132" height="90" fill="black">
<rect fill="white" x="21.165" y="42.165" width="132" height="90"/>
<path d="M22.9521 124.905C24.5264 128.716 28.2334 131.165 32.372 131.165H110.423C110.474 131.165 110.499 131.165 110.524 131.165C110.55 131.165 110.55 131.165 110.575 131.165C126.444 131.165 139.343 118.341 139.343 102.589C139.343 93.9556 135.483 85.9533 128.958 80.6016L149.169 60.4823C152.089 57.5793 152.978 53.2373 151.378 49.4255C149.804 45.6137 146.097 43.165 141.933 43.165H63.9072C63.8564 43.165 63.831 43.165 63.7803 43.165C63.7549 43.165 63.7295 43.165 63.7295 43.165C47.8857 43.165 34.9873 55.9889 34.9873 71.7411C34.9873 80.3744 38.8467 88.3767 45.372 93.7284L25.1611 113.823C22.2412 116.751 21.3525 121.093 22.9521 124.905ZM143.05 52.8587C143.202 53.1868 143.253 53.6917 142.796 54.1713L120.909 75.9315C120.808 75.9063 120.706 75.8558 120.63 75.8306C120.604 75.8306 120.579 75.8053 120.554 75.8053H120.528H120.503L63.374 55.7112C63.3232 55.686 63.2724 55.686 63.2217 55.6607C62.7646 55.5093 62.333 55.1559 62.1045 54.651C62.1045 54.6257 62.0791 54.6005 62.0791 54.6005C62.0537 54.55 62.0537 54.4743 62.0283 54.4238C62.0283 54.3733 62.0029 54.3481 62.0029 54.2976C62.0029 54.2471 62.0029 54.1966 61.9775 54.1461C61.9775 54.0956 61.9521 54.0451 61.9521 53.9694C61.9521 53.9442 61.9521 53.9441 61.9521 53.9189C61.9775 52.9596 62.8662 52.1771 63.9326 52.1771H141.958C142.618 52.1014 142.923 52.5053 143.05 52.8587ZM53.0146 55.2568C53.0146 55.3073 53.04 55.3578 53.04 55.4083C53.0654 55.5345 53.0908 55.6607 53.0908 55.7869C53.1162 55.9384 53.1416 56.0646 53.167 56.2161C53.1924 56.3423 53.2178 56.4685 53.2685 56.5948C53.2939 56.721 53.3447 56.8472 53.3701 56.9987C53.4209 57.1249 53.4463 57.2511 53.497 57.3773C53.5478 57.5035 53.5986 57.6298 53.624 57.756C53.6748 57.8822 53.7256 58.0084 53.7763 58.1346C53.8271 58.2609 53.8779 58.3618 53.9287 58.4628C53.9795 58.589 54.0556 58.7152 54.1064 58.8415C54.1572 58.9424 54.208 59.0434 54.2588 59.1444C54.4111 59.4221 54.5888 59.6997 54.7666 59.9774C54.8174 60.0279 54.8428 60.1036 54.8935 60.1794C54.9697 60.3056 55.0713 60.4066 55.1728 60.5328C55.249 60.6338 55.3252 60.7095 55.376 60.8105C55.4775 60.9114 55.5537 61.0124 55.6553 61.1386C55.7314 61.2396 55.8076 61.3154 55.9092 61.4163C56.0107 61.5173 56.1123 61.6183 56.2138 61.694C56.3154 61.795 56.3916 61.8707 56.4931 61.9464C56.5947 62.0222 56.6963 62.1232 56.7978 62.1989C56.8994 62.2746 57.001 62.3756 57.1279 62.4513C57.2295 62.5271 57.331 62.6028 57.4326 62.6785C57.5595 62.7543 57.6611 62.83 57.7881 62.931C57.8896 63.0067 57.9912 63.0572 58.0928 63.1329C58.2197 63.2086 58.372 63.2844 58.499 63.3601C58.6006 63.4106 58.7021 63.4611 58.8037 63.5116C58.956 63.5873 59.1338 63.663 59.3115 63.7388C59.3877 63.764 59.4638 63.8145 59.5654 63.8397C59.7939 63.9407 60.0224 64.0164 60.2763 64.0922C60.3017 64.0922 60.3271 64.1174 60.3525 64.1174L117.228 84.1105L117.304 84.1358L117.38 84.161C117.405 84.161 117.405 84.161 117.431 84.1863C118.218 84.4639 119.005 84.8174 119.792 85.2465C126.292 88.6292 130.329 95.2936 130.329 102.589C130.329 109.481 126.724 115.564 121.315 119.073C121.29 118.897 121.265 118.745 121.239 118.568C121.239 118.493 121.214 118.442 121.214 118.366C121.112 117.786 120.935 117.23 120.757 116.7C120.757 116.7 120.757 116.675 120.731 116.675C120.63 116.423 120.528 116.17 120.427 115.918C120.427 115.893 120.401 115.867 120.376 115.842C120.274 115.615 120.147 115.388 120.02 115.16C119.995 115.135 119.995 115.11 119.97 115.085C119.843 114.858 119.69 114.63 119.538 114.403C119.538 114.403 119.538 114.378 119.513 114.378C118.853 113.444 118.065 112.586 117.126 111.904C117.075 111.879 117.024 111.828 116.999 111.803C116.821 111.677 116.644 111.551 116.44 111.424C116.364 111.374 116.313 111.349 116.237 111.298C116.06 111.197 115.882 111.096 115.704 110.995C115.628 110.945 115.552 110.919 115.476 110.869C115.298 110.768 115.095 110.692 114.917 110.617C114.841 110.591 114.765 110.541 114.688 110.516C114.409 110.415 114.155 110.314 113.876 110.213L57.2295 90.27L57.1279 90.2448L56.874 90.1438C56.8486 90.1438 56.8232 90.1186 56.8232 90.1186C56.0615 89.8409 55.2998 89.4875 54.5635 89.1088C48.0635 85.7009 44.0263 79.0365 44.0263 71.7411C44.001 64.8495 47.6064 58.7657 53.0146 55.2568ZM31.5342 120.159L53.4209 98.3985C53.497 98.4238 53.5478 98.449 53.624 98.4743C53.6494 98.4743 53.6748 98.4995 53.7002 98.4995C53.7256 98.4995 53.7256 98.4995 53.751 98.5248H53.7763H53.8017L53.9541 98.5752C54.0049 98.6005 54.081 98.6257 54.1318 98.651L110.931 118.644C110.981 118.669 111.058 118.695 111.108 118.695C111.286 118.745 111.464 118.846 111.616 118.947C111.642 118.947 111.642 118.972 111.667 118.972C112.099 119.3 112.378 119.805 112.378 120.335C112.378 120.386 112.378 120.411 112.378 120.462C112.378 120.512 112.378 120.588 112.353 120.638C112.353 120.689 112.327 120.765 112.327 120.815C112.327 120.84 112.302 120.866 112.302 120.891C112.073 121.623 111.286 122.178 110.423 122.178H32.372C31.7119 122.178 31.4072 121.774 31.2549 121.446C31.1279 121.143 31.0517 120.638 31.5342 120.159Z"/>
</mask>
<path d="M22.9521 124.905C24.5264 128.716 28.2334 131.165 32.372 131.165H110.423C110.474 131.165 110.499 131.165 110.524 131.165C110.55 131.165 110.55 131.165 110.575 131.165C126.444 131.165 139.343 118.341 139.343 102.589C139.343 93.9556 135.483 85.9533 128.958 80.6016L149.169 60.4823C152.089 57.5793 152.978 53.2373 151.378 49.4255C149.804 45.6137 146.097 43.165 141.933 43.165H63.9072C63.8564 43.165 63.831 43.165 63.7803 43.165C63.7549 43.165 63.7295 43.165 63.7295 43.165C47.8857 43.165 34.9873 55.9889 34.9873 71.7411C34.9873 80.3744 38.8467 88.3767 45.372 93.7284L25.1611 113.823C22.2412 116.751 21.3525 121.093 22.9521 124.905ZM143.05 52.8587C143.202 53.1868 143.253 53.6917 142.796 54.1713L120.909 75.9315C120.808 75.9063 120.706 75.8558 120.63 75.8306C120.604 75.8306 120.579 75.8053 120.554 75.8053H120.528H120.503L63.374 55.7112C63.3232 55.686 63.2724 55.686 63.2217 55.6607C62.7646 55.5093 62.333 55.1559 62.1045 54.651C62.1045 54.6257 62.0791 54.6005 62.0791 54.6005C62.0537 54.55 62.0537 54.4743 62.0283 54.4238C62.0283 54.3733 62.0029 54.3481 62.0029 54.2976C62.0029 54.2471 62.0029 54.1966 61.9775 54.1461C61.9775 54.0956 61.9521 54.0451 61.9521 53.9694C61.9521 53.9442 61.9521 53.9441 61.9521 53.9189C61.9775 52.9596 62.8662 52.1771 63.9326 52.1771H141.958C142.618 52.1014 142.923 52.5053 143.05 52.8587ZM53.0146 55.2568C53.0146 55.3073 53.04 55.3578 53.04 55.4083C53.0654 55.5345 53.0908 55.6607 53.0908 55.7869C53.1162 55.9384 53.1416 56.0646 53.167 56.2161C53.1924 56.3423 53.2178 56.4685 53.2685 56.5948C53.2939 56.721 53.3447 56.8472 53.3701 56.9987C53.4209 57.1249 53.4463 57.2511 53.497 57.3773C53.5478 57.5035 53.5986 57.6298 53.624 57.756C53.6748 57.8822 53.7256 58.0084 53.7763 58.1346C53.8271 58.2609 53.8779 58.3618 53.9287 58.4628C53.9795 58.589 54.0556 58.7152 54.1064 58.8415C54.1572 58.9424 54.208 59.0434 54.2588 59.1444C54.4111 59.4221 54.5888 59.6997 54.7666 59.9774C54.8174 60.0279 54.8428 60.1036 54.8935 60.1794C54.9697 60.3056 55.0713 60.4066 55.1728 60.5328C55.249 60.6338 55.3252 60.7095 55.376 60.8105C55.4775 60.9114 55.5537 61.0124 55.6553 61.1386C55.7314 61.2396 55.8076 61.3154 55.9092 61.4163C56.0107 61.5173 56.1123 61.6183 56.2138 61.694C56.3154 61.795 56.3916 61.8707 56.4931 61.9464C56.5947 62.0222 56.6963 62.1232 56.7978 62.1989C56.8994 62.2746 57.001 62.3756 57.1279 62.4513C57.2295 62.5271 57.331 62.6028 57.4326 62.6785C57.5595 62.7543 57.6611 62.83 57.7881 62.931C57.8896 63.0067 57.9912 63.0572 58.0928 63.1329C58.2197 63.2086 58.372 63.2844 58.499 63.3601C58.6006 63.4106 58.7021 63.4611 58.8037 63.5116C58.956 63.5873 59.1338 63.663 59.3115 63.7388C59.3877 63.764 59.4638 63.8145 59.5654 63.8397C59.7939 63.9407 60.0224 64.0164 60.2763 64.0922C60.3017 64.0922 60.3271 64.1174 60.3525 64.1174L117.228 84.1105L117.304 84.1358L117.38 84.161C117.405 84.161 117.405 84.161 117.431 84.1863C118.218 84.4639 119.005 84.8174 119.792 85.2465C126.292 88.6292 130.329 95.2936 130.329 102.589C130.329 109.481 126.724 115.564 121.315 119.073C121.29 118.897 121.265 118.745 121.239 118.568C121.239 118.493 121.214 118.442 121.214 118.366C121.112 117.786 120.935 117.23 120.757 116.7C120.757 116.7 120.757 116.675 120.731 116.675C120.63 116.423 120.528 116.17 120.427 115.918C120.427 115.893 120.401 115.867 120.376 115.842C120.274 115.615 120.147 115.388 120.02 115.16C119.995 115.135 119.995 115.11 119.97 115.085C119.843 114.858 119.69 114.63 119.538 114.403C119.538 114.403 119.538 114.378 119.513 114.378C118.853 113.444 118.065 112.586 117.126 111.904C117.075 111.879 117.024 111.828 116.999 111.803C116.821 111.677 116.644 111.551 116.44 111.424C116.364 111.374 116.313 111.349 116.237 111.298C116.06 111.197 115.882 111.096 115.704 110.995C115.628 110.945 115.552 110.919 115.476 110.869C115.298 110.768 115.095 110.692 114.917 110.617C114.841 110.591 114.765 110.541 114.688 110.516C114.409 110.415 114.155 110.314 113.876 110.213L57.2295 90.27L57.1279 90.2448L56.874 90.1438C56.8486 90.1438 56.8232 90.1186 56.8232 90.1186C56.0615 89.8409 55.2998 89.4875 54.5635 89.1088C48.0635 85.7009 44.0263 79.0365 44.0263 71.7411C44.001 64.8495 47.6064 58.7657 53.0146 55.2568ZM31.5342 120.159L53.4209 98.3985C53.497 98.4238 53.5478 98.449 53.624 98.4743C53.6494 98.4743 53.6748 98.4995 53.7002 98.4995C53.7256 98.4995 53.7256 98.4995 53.751 98.5248H53.7763H53.8017L53.9541 98.5752C54.0049 98.6005 54.081 98.6257 54.1318 98.651L110.931 118.644C110.981 118.669 111.058 118.695 111.108 118.695C111.286 118.745 111.464 118.846 111.616 118.947C111.642 118.947 111.642 118.972 111.667 118.972C112.099 119.3 112.378 119.805 112.378 120.335C112.378 120.386 112.378 120.411 112.378 120.462C112.378 120.512 112.378 120.588 112.353 120.638C112.353 120.689 112.327 120.765 112.327 120.815C112.327 120.84 112.302 120.866 112.302 120.891C112.073 121.623 111.286 122.178 110.423 122.178H32.372C31.7119 122.178 31.4072 121.774 31.2549 121.446C31.1279 121.143 31.0517 120.638 31.5342 120.159Z" fill="white"/>
<path d="M22.9521 124.905C24.5264 128.716 28.2334 131.165 32.372 131.165H110.423C110.474 131.165 110.499 131.165 110.524 131.165C110.55 131.165 110.55 131.165 110.575 131.165C126.444 131.165 139.343 118.341 139.343 102.589C139.343 93.9556 135.483 85.9533 128.958 80.6016L149.169 60.4823C152.089 57.5793 152.978 53.2373 151.378 49.4255C149.804 45.6137 146.097 43.165 141.933 43.165H63.9072C63.8564 43.165 63.831 43.165 63.7803 43.165C63.7549 43.165 63.7295 43.165 63.7295 43.165C47.8857 43.165 34.9873 55.9889 34.9873 71.7411C34.9873 80.3744 38.8467 88.3767 45.372 93.7284L25.1611 113.823C22.2412 116.751 21.3525 121.093 22.9521 124.905ZM143.05 52.8587C143.202 53.1868 143.253 53.6917 142.796 54.1713L120.909 75.9315C120.808 75.9063 120.706 75.8558 120.63 75.8306C120.604 75.8306 120.579 75.8053 120.554 75.8053H120.528H120.503L63.374 55.7112C63.3232 55.686 63.2724 55.686 63.2217 55.6607C62.7646 55.5093 62.333 55.1559 62.1045 54.651C62.1045 54.6257 62.0791 54.6005 62.0791 54.6005C62.0537 54.55 62.0537 54.4743 62.0283 54.4238C62.0283 54.3733 62.0029 54.3481 62.0029 54.2976C62.0029 54.2471 62.0029 54.1966 61.9775 54.1461C61.9775 54.0956 61.9521 54.0451 61.9521 53.9694C61.9521 53.9442 61.9521 53.9441 61.9521 53.9189C61.9775 52.9596 62.8662 52.1771 63.9326 52.1771H141.958C142.618 52.1014 142.923 52.5053 143.05 52.8587ZM53.0146 55.2568C53.0146 55.3073 53.04 55.3578 53.04 55.4083C53.0654 55.5345 53.0908 55.6607 53.0908 55.7869C53.1162 55.9384 53.1416 56.0646 53.167 56.2161C53.1924 56.3423 53.2178 56.4685 53.2685 56.5948C53.2939 56.721 53.3447 56.8472 53.3701 56.9987C53.4209 57.1249 53.4463 57.2511 53.497 57.3773C53.5478 57.5035 53.5986 57.6298 53.624 57.756C53.6748 57.8822 53.7256 58.0084 53.7763 58.1346C53.8271 58.2609 53.8779 58.3618 53.9287 58.4628C53.9795 58.589 54.0556 58.7152 54.1064 58.8415C54.1572 58.9424 54.208 59.0434 54.2588 59.1444C54.4111 59.4221 54.5888 59.6997 54.7666 59.9774C54.8174 60.0279 54.8428 60.1036 54.8935 60.1794C54.9697 60.3056 55.0713 60.4066 55.1728 60.5328C55.249 60.6338 55.3252 60.7095 55.376 60.8105C55.4775 60.9114 55.5537 61.0124 55.6553 61.1386C55.7314 61.2396 55.8076 61.3154 55.9092 61.4163C56.0107 61.5173 56.1123 61.6183 56.2138 61.694C56.3154 61.795 56.3916 61.8707 56.4931 61.9464C56.5947 62.0222 56.6963 62.1232 56.7978 62.1989C56.8994 62.2746 57.001 62.3756 57.1279 62.4513C57.2295 62.5271 57.331 62.6028 57.4326 62.6785C57.5595 62.7543 57.6611 62.83 57.7881 62.931C57.8896 63.0067 57.9912 63.0572 58.0928 63.1329C58.2197 63.2086 58.372 63.2844 58.499 63.3601C58.6006 63.4106 58.7021 63.4611 58.8037 63.5116C58.956 63.5873 59.1338 63.663 59.3115 63.7388C59.3877 63.764 59.4638 63.8145 59.5654 63.8397C59.7939 63.9407 60.0224 64.0164 60.2763 64.0922C60.3017 64.0922 60.3271 64.1174 60.3525 64.1174L117.228 84.1105L117.304 84.1358L117.38 84.161C117.405 84.161 117.405 84.161 117.431 84.1863C118.218 84.4639 119.005 84.8174 119.792 85.2465C126.292 88.6292 130.329 95.2936 130.329 102.589C130.329 109.481 126.724 115.564 121.315 119.073C121.29 118.897 121.265 118.745 121.239 118.568C121.239 118.493 121.214 118.442 121.214 118.366C121.112 117.786 120.935 117.23 120.757 116.7C120.757 116.7 120.757 116.675 120.731 116.675C120.63 116.423 120.528 116.17 120.427 115.918C120.427 115.893 120.401 115.867 120.376 115.842C120.274 115.615 120.147 115.388 120.02 115.16C119.995 115.135 119.995 115.11 119.97 115.085C119.843 114.858 119.69 114.63 119.538 114.403C119.538 114.403 119.538 114.378 119.513 114.378C118.853 113.444 118.065 112.586 117.126 111.904C117.075 111.879 117.024 111.828 116.999 111.803C116.821 111.677 116.644 111.551 116.44 111.424C116.364 111.374 116.313 111.349 116.237 111.298C116.06 111.197 115.882 111.096 115.704 110.995C115.628 110.945 115.552 110.919 115.476 110.869C115.298 110.768 115.095 110.692 114.917 110.617C114.841 110.591 114.765 110.541 114.688 110.516C114.409 110.415 114.155 110.314 113.876 110.213L57.2295 90.27L57.1279 90.2448L56.874 90.1438C56.8486 90.1438 56.8232 90.1186 56.8232 90.1186C56.0615 89.8409 55.2998 89.4875 54.5635 89.1088C48.0635 85.7009 44.0263 79.0365 44.0263 71.7411C44.001 64.8495 47.6064 58.7657 53.0146 55.2568ZM31.5342 120.159L53.4209 98.3985C53.497 98.4238 53.5478 98.449 53.624 98.4743C53.6494 98.4743 53.6748 98.4995 53.7002 98.4995C53.7256 98.4995 53.7256 98.4995 53.751 98.5248H53.7763H53.8017L53.9541 98.5752C54.0049 98.6005 54.081 98.6257 54.1318 98.651L110.931 118.644C110.981 118.669 111.058 118.695 111.108 118.695C111.286 118.745 111.464 118.846 111.616 118.947C111.642 118.947 111.642 118.972 111.667 118.972C112.099 119.3 112.378 119.805 112.378 120.335C112.378 120.386 112.378 120.411 112.378 120.462C112.378 120.512 112.378 120.588 112.353 120.638C112.353 120.689 112.327 120.765 112.327 120.815C112.327 120.84 112.302 120.866 112.302 120.891C112.073 121.623 111.286 122.178 110.423 122.178H32.372C31.7119 122.178 31.4072 121.774 31.2549 121.446C31.1279 121.143 31.0517 120.638 31.5342 120.159Z" stroke="white" mask="url(#path-2-outside-1_11087_22079)"/>
</svg>
